<svg width="75" height="76" viewBox="0 0 75 76" fill="none" xmlns="http://www.w3.org/2000/svg">
<rect width="75" height="76" fill="#D2D2D2"/>
<g clip-path="url(#clip0_432_8842)">
<rect width="1440" height="1910" transform="translate(-1205 -354)" fill="white"/>
<rect x="-135.5" y="-131.5" width="346" height="498" rx="11.5" fill="white"/>
<rect x="-135.5" y="-131.5" width="346" height="498" rx="11.5" stroke="#DDDDDD"/>
<circle cx="37.5" cy="38" r="37.5" fill="#05317B"/>
<path d="M21.3333 22C20.7667 22 20.3333 22.4245 20.3333 22.9796V50.0816H19C17.9 50.0816 17 50.9633 17 52.0408C17 53.1184 17.9 54 19 54H57C58.1 54 59 53.1184 59 52.0408C59 50.9633 58.1 50.0816 57 50.0816H55.6667V22.9796C55.6667 22.4245 55.2333 22 54.6667 22H21.3333ZM22.3333 23.9592H53.6667V50.0816H22.3333V23.9592ZM29 30.8163C26.9667 30.8163 25.3333 32.4163 25.3333 34.4082C25.3333 36.4 26.9667 38 29 38H35.2331C35.7997 38 36.2331 37.5755 36.2331 37.0204C36.2331 36.4653 35.7997 36.0408 35.2331 36.0408H29C28.0667 36.0408 27.3333 35.3224 27.3333 34.4082C27.3333 33.4939 28.0667 32.7755 29 32.7755H48C48.5667 32.7755 49 32.351 49 31.7959C49 31.2408 48.5667 30.8163 48 30.8163H29ZM40.4414 35.514C40.1773 35.5125 39.9081 35.6166 39.7331 35.8125C39.4664 36.0737 39.3668 36.4324 39.4668 36.7589L41.5664 43.9426C41.6997 44.3671 42.0665 44.6614 42.5332 44.6614H42.5664C43.0331 44.6614 43.4 44.3346 43.5 43.9101L44.0664 41.4611L47.2669 44.5957C47.4669 44.7916 47.7335 44.8897 47.9668 44.8897C48.2001 44.8897 48.4667 44.7916 48.6667 44.5957C49.0667 44.2038 49.0667 43.5837 48.6667 43.2245L45.5 40.0574L48.0332 39.5019C48.4665 39.404 48.8001 39.0125 48.8001 38.588C48.8001 38.1309 48.4997 37.739 48.0664 37.6084L40.6999 35.551C40.6165 35.5265 40.5294 35.5145 40.4414 35.514Z" fill="white"/>
</g>
<defs>
<clipPath id="clip0_432_8842">
<rect width="1440" height="1910" fill="white" transform="translate(-1205 -354)"/>
</clipPath>
</defs>
</svg>
