<svg width="75" height="76" viewBox="0 0 75 76" fill="none" xmlns="http://www.w3.org/2000/svg">
<circle cx="37.5" cy="38" r="37.5" fill="#05317B"/>
<path d="M37.2623 16.0014C31.8476 16.0623 26.4537 18.1579 22.324 22.2942C16.0312 28.5602 14.2547 37.9033 17.8083 46.0601C17.9933 46.468 18.4001 46.7278 18.8443 46.7278C18.9924 46.7278 19.1409 46.6903 19.2889 46.6532C19.8442 46.3937 20.1032 45.764 19.8811 45.2078C16.6606 37.8667 18.2519 29.4868 23.8784 23.8512C27.5431 20.2177 32.3555 18.2158 37.5009 18.2158C41.6468 18.2158 45.6078 19.5134 48.9023 21.9604H47.0884C46.4591 21.9604 45.9779 22.4424 45.9779 23.0727C45.9779 23.703 46.4591 24.185 47.0884 24.185H51.9005C52.5298 24.185 53.011 23.703 53.011 23.0727V18.2528C53.011 17.6225 52.5298 17.1405 51.9005 17.1405C51.2712 17.1405 50.79 17.6225 50.79 18.2528V20.5889C46.8339 17.4779 42.0399 15.9476 37.2623 16.0014ZM56.1054 28.1628C55.9608 28.1662 55.8148 28.1985 55.676 28.2634C55.1207 28.523 54.8616 29.1533 55.1207 29.7465C58.3412 37.0876 56.7869 45.5043 51.1233 51.177C47.4587 54.7734 42.6462 56.7754 37.5009 56.7754C33.355 56.7754 29.3939 55.4779 26.0994 53.0308H27.9134C28.5427 53.0308 29.0239 52.5488 29.0239 51.9185C29.0239 51.2882 28.5427 50.8062 27.9134 50.8062H23.1012C22.4719 50.8062 21.9907 51.2882 21.9907 51.9185V56.7385C21.9907 57.3688 22.4719 57.8508 23.1012 57.8508C23.7305 57.8508 24.2117 57.3688 24.2117 56.7385V54.4024C28.0985 57.4426 32.7997 59 37.5009 59C43.0164 59 48.4948 56.8866 52.6777 52.697C59.0076 46.3569 60.7472 37.0135 57.1566 28.8196C56.9623 28.4025 56.5392 28.1523 56.1054 28.1628ZM37.5009 28.5972C36.8716 28.5972 36.3904 29.0792 36.3904 29.7095V29.858C34.6506 30.34 33.3922 31.934 33.3922 33.8249C33.3922 35.1596 34.0212 36.3832 35.1317 37.1618L38.5745 39.5718C39.0927 39.9425 39.3886 40.4991 39.3886 41.1294C39.3886 42.1675 38.5373 43.0202 37.5009 43.0202C36.7605 43.0202 36.0575 42.5754 35.7614 41.8709C35.5023 41.3148 34.8728 41.0547 34.3176 41.2771C33.7623 41.5367 33.5034 42.1671 33.7255 42.7233C34.2437 43.8726 35.2058 44.7257 36.3904 45.0594V45.2817C36.3904 45.912 36.8716 46.394 37.5009 46.394C38.1302 46.394 38.6114 45.912 38.6114 45.2817V45.1332C40.3512 44.6512 41.6096 43.0572 41.6096 41.1663C41.6096 39.7945 40.9437 38.5335 39.8332 37.7549L36.3904 35.3825C35.9092 35.0118 35.6132 34.4552 35.6132 33.8249C35.6132 32.7868 36.4644 31.9341 37.5009 31.9341C38.2782 31.9341 38.9442 32.3789 39.2404 33.0834C39.4625 33.6395 40.1289 33.8989 40.6842 33.6764C41.2394 33.454 41.4984 32.7872 41.2763 32.231C40.7951 31.0446 39.7959 30.1917 38.6114 29.858V29.7095C38.6114 29.0792 38.1302 28.5972 37.5009 28.5972Z" fill="white"/>
</svg>
