<svg width="828" height="466" viewBox="0 0 828 466" fill="none" xmlns="http://www.w3.org/2000/svg">
<rect width="828" height="466" fill="white"/>
<ellipse cx="413.83" cy="177.83" rx="87.83" ry="87.83" fill="#EBF3F6"/>
<g clip-path="url(#clip0_61_139)">
<path d="M434.108 229.912C419.156 229.912 407.424 207.992 407.424 180.011C407.424 152.03 419.136 130.111 434.108 130.111C449.08 130.111 460.772 152.03 460.772 180.011C460.775 183.752 460.553 187.489 460.109 191.205L456.15 190.747C456.576 187.181 456.788 183.594 456.785 180.004C456.785 155.067 446.391 133.997 434.088 133.997C421.785 133.997 411.391 155.067 411.391 180.004C411.391 204.941 421.785 226.011 434.088 226.011C439.513 226.011 443.72 221.984 446.299 218.607L449.498 220.93C445.025 226.809 439.7 229.912 434.108 229.912Z" fill="#0A0A0A"/>
<path d="M434.108 215.526C425.429 215.526 418.885 200.257 418.885 179.999C418.885 159.741 425.429 144.487 434.108 144.487C442.788 144.487 449.334 159.754 449.334 179.999C449.334 200.245 442.775 215.526 434.108 215.526ZM434.108 148.392C428.793 148.392 422.872 161.377 422.872 180.011C422.872 198.646 428.793 211.645 434.108 211.645C439.423 211.645 445.347 198.658 445.347 180.011C445.347 161.365 439.411 148.392 434.108 148.392V148.392Z" fill="#0A0A0A"/>
<path d="M432.212 200.597L428.381 199.522C430.044 193.869 430.921 187.112 430.921 180.011C430.921 173.142 430.096 166.579 428.533 161.031L432.379 159.997C434.033 165.874 434.908 172.794 434.908 180.006C434.908 187.479 433.976 194.599 432.212 200.597Z" fill="#0A0A0A"/>
<path d="M434.108 229.912H403.656C388.704 229.912 376.972 207.992 376.972 180.011C376.972 170.3 378.437 160.902 381.209 152.831L384.991 154.067C382.355 161.744 380.962 170.716 380.962 180.011C380.962 204.951 391.356 226.019 403.659 226.019H434.108V229.912Z" fill="#0A0A0A"/>
<path d="M434.098 130.111H403.646V134.004H434.098V130.111Z" fill="#0A0A0A"/>
<path d="M405.062 223.49C396.771 214.73 391.62 198.074 391.62 180.011C391.62 161.948 396.773 145.278 405.077 136.525L408.002 139.168C400.359 147.232 395.612 162.883 395.612 180.011C395.612 197.14 400.347 212.779 407.995 220.845L405.062 223.49Z" fill="#0A0A0A"/>
<path d="M416.198 144.497H409.408V148.39H416.198V144.497Z" fill="#0A0A0A"/>
<path d="M411.476 157.982H404.685V161.876H411.476V157.982Z" fill="#0A0A0A"/>
<path d="M388.597 157.982H381.807V161.876H388.597V157.982Z" fill="#0A0A0A"/>
<path d="M409.178 171.468H402.388V175.361H409.178V171.468Z" fill="#0A0A0A"/>
<path d="M386.3 171.468H379.509V175.361H386.3V171.468Z" fill="#0A0A0A"/>
<path d="M409.178 184.951H402.388V188.844H409.178V184.951Z" fill="#0A0A0A"/>
<path d="M386.3 184.951H379.509V188.844H386.3V184.951Z" fill="#0A0A0A"/>
<path d="M411.476 198.437H404.685V202.33H411.476V198.437Z" fill="#0A0A0A"/>
<path d="M388.597 198.437H381.807V202.33H388.597V198.437Z" fill="#0A0A0A"/>
<path d="M416.535 211.915H409.744V215.808H416.535V211.915Z" fill="#0A0A0A"/>
<path d="M393.656 211.915H386.865V215.808H393.656V211.915Z" fill="#0A0A0A"/>
<path d="M457.236 229.912C456.82 229.912 456.414 229.784 456.076 229.547C455.737 229.31 455.484 228.976 455.35 228.591C453.169 222.327 449.94 217.232 446.012 213.854C445.8 213.672 445.63 213.447 445.514 213.195C445.398 212.944 445.337 212.671 445.337 212.394C445.337 212.118 445.398 211.845 445.514 211.593C445.63 211.342 445.8 211.117 446.012 210.934C449.94 207.557 453.169 202.462 455.35 196.198C455.484 195.813 455.738 195.479 456.076 195.242C456.415 195.005 456.821 194.877 457.237 194.877C457.654 194.877 458.06 195.005 458.399 195.242C458.737 195.479 458.991 195.813 459.125 196.198C461.303 202.462 464.533 207.557 468.463 210.934C468.675 211.117 468.845 211.342 468.961 211.593C469.077 211.845 469.137 212.118 469.137 212.394C469.137 212.671 469.077 212.944 468.961 213.195C468.845 213.447 468.675 213.672 468.463 213.854C464.533 217.232 461.303 222.327 459.125 228.591C458.991 228.976 458.737 229.311 458.398 229.548C458.059 229.785 457.653 229.912 457.236 229.912ZM450.216 212.392C452.957 215.142 455.332 218.629 457.236 222.687C459.143 218.629 461.517 215.144 464.256 212.392C461.515 209.642 459.143 206.155 457.236 202.094C455.332 206.167 452.957 209.645 450.216 212.394V212.392Z" fill="#0A0A0A"/>
<path d="M387.675 153.427C387.259 153.427 386.854 153.3 386.515 153.063C386.177 152.827 385.923 152.493 385.789 152.108C383.653 145.974 380.491 140.983 376.643 137.676C376.431 137.493 376.261 137.268 376.145 137.017C376.028 136.765 375.968 136.492 375.968 136.216C375.968 135.94 376.028 135.667 376.145 135.415C376.261 135.163 376.431 134.939 376.643 134.756C380.491 131.449 383.653 126.458 385.789 120.324C385.923 119.939 386.177 119.606 386.516 119.37C386.854 119.134 387.259 119.007 387.675 119.007C388.091 119.007 388.496 119.134 388.835 119.37C389.173 119.606 389.427 119.939 389.562 120.324C391.697 126.458 394.86 131.449 398.707 134.756C398.919 134.939 399.089 135.163 399.206 135.415C399.322 135.667 399.382 135.94 399.382 136.216C399.382 136.492 399.322 136.765 399.206 137.017C399.089 137.268 398.919 137.493 398.707 137.676C394.86 140.983 391.697 145.974 389.562 152.108C389.427 152.493 389.173 152.827 388.835 153.063C388.497 153.3 388.091 153.427 387.675 153.427V153.427ZM380.847 136.213C383.509 138.89 385.816 142.28 387.675 146.219C389.534 142.28 391.844 138.893 394.503 136.213C391.844 133.537 389.534 130.15 387.675 126.21C385.816 130.15 383.521 133.537 380.847 136.213Z" fill="#0A0A0A"/>
<path d="M369.11 235.367C368.694 235.367 368.288 235.24 367.95 235.004C367.612 234.767 367.358 234.433 367.223 234.049C365.457 228.975 362.848 224.853 359.675 222.125C359.463 221.942 359.293 221.718 359.177 221.466C359.061 221.214 359 220.941 359 220.665C359 220.389 359.061 220.116 359.177 219.864C359.293 219.612 359.463 219.388 359.675 219.205C362.848 216.48 365.457 212.358 367.223 207.282C367.357 206.897 367.611 206.562 367.949 206.325C368.288 206.088 368.694 205.961 369.11 205.96C369.527 205.96 369.933 206.088 370.272 206.325C370.611 206.562 370.865 206.896 370.999 207.282C372.763 212.353 375.372 216.477 378.545 219.205C378.757 219.388 378.927 219.612 379.043 219.864C379.159 220.116 379.219 220.389 379.219 220.665C379.219 220.941 379.159 221.214 379.043 221.466C378.927 221.718 378.757 221.942 378.545 222.125C375.372 224.853 372.763 228.975 370.999 234.049C370.865 234.434 370.61 234.768 370.271 235.004C369.933 235.241 369.526 235.368 369.11 235.367ZM363.857 220.665C365.996 222.924 367.768 225.49 369.11 228.274C370.452 225.49 372.223 222.924 374.363 220.665C372.223 218.405 370.452 215.838 369.11 213.054C367.768 215.841 365.996 218.41 363.857 220.672V220.665Z" fill="#0A0A0A"/>
</g>
<defs>
<clipPath id="clip0_61_139">
<rect width="110.14" height="116.375" fill="white" transform="translate(359 119)"/>
</clipPath>
</defs>
</svg>
