<svg width="48" height="48" viewBox="0 0 48 48" fill="none" xmlns="http://www.w3.org/2000/svg">
<path fill-rule="evenodd" clip-rule="evenodd" d="M37.717 44.9279C38.0853 44.8886 38.4503 44.8335 38.8106 44.7631C39.3522 44.6572 39.8008 44.2435 39.9871 43.6782C40.1734 43.1128 40.069 42.4818 39.7133 42.0234C38.886 40.9571 38.3 39.6653 38.0422 38.2461C37.9953 37.988 38.0884 37.5367 38.5643 37.0309C41.9471 33.4352 44.0488 28.5552 44.0488 23.16C44.0488 11.8913 34.9658 3 24.0488 3C13.1319 3 4.04883 11.8913 4.04883 23.16C4.04883 34.4287 13.1319 43.32 24.0488 43.32C25.758 43.32 27.4193 43.1037 29.0064 42.6957C31.1371 44.1556 33.6585 45 36.3565 45C36.8151 45 37.2692 44.9756 37.717 44.9279Z" fill="white" stroke="#FF821C" stroke-width="1.5" stroke-linecap="round" stroke-linejoin="round"/>
<path d="M18.6925 9.11996L16.2802 22.4518H9C9.2836 16.3378 13.2257 11.1824 18.6908 9.11996H18.6925ZM20.4992 27.0152L18.6608 37.1792C20.3174 37.8094 22.1141 38.1562 23.9908 38.1562C25.8676 38.1562 27.6643 37.8094 29.3209 37.1792L27.4825 27.0152H20.4975H20.4992ZM24.0726 8.15625C24.0459 8.15625 24.0192 8.15625 23.9908 8.15625C23.9625 8.15625 23.9374 8.15625 23.9091 8.15625L21.3233 22.4501H26.6567L24.0709 8.15625H24.0726ZM14.1115 34.4431L15.4544 27.0152H9.48546C10.2629 29.9381 11.8994 32.5091 14.1115 34.4431ZM29.2908 9.11996L33.8702 34.4431C37.0131 31.6937 39 27.6572 39 23.1554C39 16.7346 34.9629 11.2608 29.2908 9.11996Z" fill="#FF821C"/>
</svg>
