<svg width="140" height="35" viewBox="0 0 140 35" fill="none" xmlns="http://www.w3.org/2000/svg">
<g clip-path="url(#clip0_222_11899)">
<path d="M7.36498 10.4254L12.665 25.9499H9.85344L8.85805 22.7673H3.65848L2.6369 25.9499H0L5.27379 10.4254H7.36498ZM6.26918 14.6295L4.42684 20.3792H8.08532L6.3172 14.6295H6.26918ZM16.1837 13.835V21.3222C16.1837 22.3176 16.2841 22.8415 16.581 23.2126C16.9041 23.6098 17.4498 23.7845 18.1963 23.7845C18.9429 23.7845 19.4886 23.6098 19.8117 23.2126C20.1085 22.8415 20.2089 22.3176 20.2089 21.3222V13.835H22.7454V21.6977C22.7454 24.6096 21.1039 26.0983 18.192 26.0983C15.28 26.0983 13.6385 24.6052 13.6385 21.6977V13.835H16.1837ZM28.6959 10.9754V13.835H31.2586V15.8258H28.6959V21.4968C28.6959 22.4442 28.7963 22.9375 29.1194 23.313C29.3944 23.6622 29.8921 23.8107 30.6386 23.8107C30.9137 23.8107 31.0359 23.8107 31.2106 23.7845V26.0503C30.8613 26.0983 30.5906 26.0983 30.2414 26.0983C28.7963 26.0983 27.7791 25.701 27.1548 24.9807C26.4345 24.1861 26.1594 23.1907 26.1594 21.4968V15.8258H24.2952V13.835H26.1594V10.9754H28.6959ZM32.7517 18.1178C32.7517 15.184 34.3932 13.6909 37.3051 13.6909C40.217 13.6909 41.8586 15.184 41.8586 18.1178V21.702C41.8586 24.614 40.217 26.1027 37.3051 26.1027C34.3932 26.1027 32.7517 24.6096 32.7517 21.702V18.1178ZM35.2881 21.3266C35.2881 22.322 35.3885 22.8458 35.6854 23.2169C36.0085 23.6142 36.5542 23.7888 37.3007 23.7888C38.0473 23.7888 38.593 23.6142 38.9204 23.2169C39.2173 22.8458 39.3177 22.322 39.3177 21.3266V18.467C39.3177 17.4978 39.2173 16.9477 38.9204 16.5767C38.5974 16.1794 38.0473 16.0048 37.3007 16.0048C36.5542 16.0048 36.0085 16.1794 35.6854 16.5767C35.3885 16.9477 35.2881 17.4978 35.2881 18.467V21.3266ZM47.5034 10.9754V13.835H50.0661V15.8258H47.5034V21.4968C47.5034 22.4442 47.6038 22.9375 47.9269 23.313C48.202 23.6622 48.6996 23.8107 49.4418 23.8107C49.7169 23.8107 49.8391 23.8107 50.0137 23.7845V26.0503C49.6645 26.0983 49.3938 26.0983 49.0445 26.0983C47.5995 26.0983 46.5823 25.701 45.958 24.9807C45.2376 24.1861 44.9626 23.1907 44.9626 21.4968V15.8258H43.0984V13.835H44.9626V10.9754H47.5034ZM54.6196 13.835L54.6676 15.2277C55.3399 14.1842 56.2829 13.6866 57.5053 13.6866C57.8808 13.6866 58.1776 13.7127 58.4003 13.7346V16.1488C58.2518 16.1226 57.955 16.1226 57.7541 16.1226C56.7369 16.1226 55.938 16.3453 55.4403 16.843C54.9906 17.3145 54.7942 17.9388 54.7942 18.9822V25.9499H52.2577V13.835H54.6196ZM68.8998 13.835V25.9499H66.6864L66.6384 24.7056C66.0927 25.5264 65.0449 26.0983 63.7527 26.0983C62.6088 26.0983 61.5654 25.749 60.8669 25.0549C60.1684 24.3564 59.7973 23.3872 59.7973 21.7457V18.0392C59.7973 16.3977 60.1684 15.4241 60.8669 14.73C61.5654 14.0314 62.6088 13.6866 63.7527 13.6866C64.9707 13.6866 65.9923 14.1319 66.5904 14.957L66.6646 13.835H68.9042H68.8998ZM62.3338 21.248C62.3338 22.3438 62.4342 22.8153 62.8053 23.2388C63.1284 23.5618 63.5518 23.7626 64.2242 23.7626C64.8441 23.7626 65.3418 23.5662 65.7172 23.2388C66.2149 22.7673 66.3634 22.1211 66.3634 21.0996V18.6635C66.3634 17.6681 66.2149 16.9696 65.7172 16.4981C65.3461 16.1488 64.8484 16.0004 64.2242 16.0004C63.5518 16.0004 63.1284 16.1488 62.8053 16.4981C62.4298 16.8954 62.3338 17.4192 62.3338 18.515V21.2523V21.248ZM80.4428 9.3252V25.9455H78.2294L78.129 24.7755C77.6051 25.5962 76.6141 26.0939 75.3437 26.0939C74.1998 26.0939 73.104 25.7447 72.4099 25.0505C71.7114 24.352 71.3403 23.3828 71.3403 21.7413V18.0348C71.3403 16.3933 71.7157 15.4197 72.4099 14.7256C73.104 14.0271 74.226 13.6822 75.3698 13.6822C76.3914 13.6822 77.2864 14.0314 77.9063 14.6252V9.3252H80.4428ZM73.8724 21.2436C73.8724 22.3394 73.9728 22.8109 74.3439 23.2344C74.667 23.5575 75.0904 23.7583 75.7628 23.7583C76.3827 23.7583 76.8804 23.5618 77.2558 23.2344C77.7535 22.7629 77.902 22.1168 77.902 21.0952V18.6591C77.902 17.6637 77.7535 16.9652 77.2558 16.4937C76.8804 16.1445 76.3871 15.996 75.7628 15.996C75.0904 15.996 74.667 16.1445 74.3439 16.4937C73.9728 16.891 73.8724 17.4149 73.8724 18.5107V21.248V21.2436ZM82.8789 18.1047C82.8789 15.1709 84.4462 13.6778 87.3581 13.6778C90.2701 13.6778 91.8373 15.1709 91.8373 18.1047V20.1435C91.8373 20.6673 91.5143 20.8158 91.1432 20.8158H85.4197V21.3877C85.4197 22.8327 85.6206 23.8238 87.3625 23.8238C88.7071 23.8238 89.279 23.1776 89.279 21.9858H91.7893V22.0338C91.7893 24.6969 90.1216 26.0896 87.3625 26.0896C84.4505 26.0896 82.8833 24.5965 82.8833 21.6889V18.1047H82.8789ZM85.4154 18.8032H89.2965V18.4059C89.2965 16.939 89.0738 15.9436 87.3538 15.9436C85.7603 15.9436 85.411 16.7906 85.411 18.4059V18.8032H85.4154ZM96.6353 13.8263L96.6833 15.2189C97.3556 14.1755 98.2986 13.6778 99.521 13.6778C99.8921 13.6778 100.193 13.704 100.416 13.7258V16.1401C100.268 16.1139 99.9663 16.1139 99.7699 16.1139C98.7483 16.1139 97.9537 16.3365 97.456 16.8342C97.0064 17.3057 96.8099 17.93 96.8099 18.9734V25.9411H94.2734V13.8263H96.6353Z" fill="#012169"/>
<path d="M136.56 30.1497H136.656C136.678 30.3068 136.765 30.4378 137.023 30.4378C137.215 30.4378 137.346 30.3243 137.346 30.1715C137.346 29.9969 137.263 29.9358 137.014 29.8965C136.743 29.8572 136.612 29.7655 136.612 29.569C136.612 29.3726 136.769 29.246 137.005 29.246C137.241 29.246 137.376 29.3595 137.407 29.5603H137.319C137.289 29.4075 137.193 29.3289 137.01 29.3289C136.826 29.3289 136.708 29.4162 136.708 29.5647C136.708 29.7 136.774 29.7742 137.036 29.8135C137.315 29.8572 137.446 29.9314 137.446 30.1671C137.446 30.3636 137.28 30.5208 137.031 30.5208C136.726 30.5208 136.595 30.3549 136.569 30.1497H136.56ZM137.734 29.2634H137.874L138.31 30.3287L138.751 29.2634H138.887V30.5033H138.791V29.3813L138.324 30.5033H138.293L137.826 29.3813V30.5033H137.734V29.2634Z" fill="#8D8F92"/>
<path d="M117.927 5.24764L115.827 16.8517H109.497C109.741 11.5299 113.173 7.04195 117.927 5.24764ZM119.499 20.8245L117.901 29.6695C119.341 30.2196 120.904 30.5208 122.537 30.5208C124.17 30.5208 125.733 30.2196 127.173 29.6695L125.576 20.8245H119.499ZM122.607 4.40942H122.467L120.219 16.8517H124.86L122.611 4.40942H122.607ZM113.941 27.2858L115.111 20.8202H109.92C110.597 23.3654 112.02 25.6006 113.945 27.2858H113.941ZM127.143 5.24764L131.129 27.2858C133.862 24.8934 135.591 21.379 135.591 17.4629C135.591 11.8748 132.081 7.11181 127.147 5.24764H127.143Z" fill="#FF821C"/>
<path d="M122.537 0.493286C113.164 0.493286 105.568 8.08964 105.568 17.4629C105.568 26.8361 113.164 34.4324 122.537 34.4324C131.91 34.4324 139.507 26.8361 139.507 17.4629C139.507 8.08964 131.91 0.493286 122.537 0.493286ZM122.467 4.40497H122.607L124.855 16.8473H120.215L122.463 4.40497H122.467ZM113.945 27.2814C112.024 25.5962 110.597 23.3609 109.92 20.8157H115.111L113.941 27.2814H113.945ZM109.501 16.8429C109.746 11.5211 113.177 7.03314 117.931 5.23883L115.831 16.8429H109.501ZM122.541 30.512C120.909 30.512 119.346 30.2108 117.905 29.6607L119.503 20.8157H125.58L127.178 29.6607C125.737 30.2108 124.174 30.512 122.541 30.512ZM131.133 27.2814L127.147 5.24319C132.081 7.10736 135.591 11.8704 135.591 17.4585C135.591 21.3745 133.862 24.8889 131.129 27.2814H131.133Z" fill="white"/>
<path d="M122.537 0C112.893 0 105.074 7.81901 105.074 17.4629C105.074 27.1068 112.893 34.9258 122.537 34.9258C132.181 34.9258 140 27.1068 140 17.4629C140 7.81901 132.181 0 122.537 0ZM122.537 34.4325C113.164 34.4325 105.568 26.8361 105.568 17.4629C105.568 8.08969 113.164 0.493327 122.537 0.493327C131.91 0.493327 139.507 8.08969 139.507 17.4629C139.507 26.8361 131.91 34.4325 122.537 34.4325Z" fill="#FF821C"/>
</g>
<defs>
<clipPath id="clip0_222_11899">
<rect width="140" height="34.9258" fill="white"/>
</clipPath>
</defs>
</svg>
