<svg width="24" height="24" viewBox="0 0 24 24" fill="none" xmlns="http://www.w3.org/2000/svg">
<path fill-rule="evenodd" clip-rule="evenodd" d="M6.004 5.57937C6.55802 4.73377 7.53691 4.25 8.55177 4.25H15.2573C15.7615 4.25 16.2931 4.36856 16.764 4.58047C17.2299 4.79011 17.6932 5.11734 17.9958 5.57889M17.9958 5.57889L20.3465 9.16096L21.5097 8.67788C21.8922 8.51901 22.3311 8.70032 22.49 9.08286C22.6488 9.46539 22.4675 9.90429 22.085 10.0632L21.405 10.3456C21.6426 10.7312 21.7417 11.188 21.7417 11.6299V13.8499C21.7417 14.0163 21.7437 14.1928 21.7458 14.3715C21.7491 14.6683 21.7526 14.971 21.747 15.2426C21.7452 15.3277 21.7426 15.4137 21.7387 15.5H21.75V19C21.75 19.9665 20.9665 20.75 20 20.75H18C17.0336 20.75 16.25 19.9665 16.25 19V18.2299H7.75005V19C7.75005 19.9665 6.96655 20.75 6.00005 20.75H4.00005C3.03355 20.75 2.25005 19.9665 2.25005 19V14.5H2.26557C2.25438 14.2815 2.25005 14.0638 2.25005 13.8499V11.6299C2.25005 11.2256 2.31963 10.7862 2.52189 10.4029L1.70985 10.0621C1.32791 9.90181 1.14822 9.46224 1.3085 9.0803C1.46879 8.69835 1.90835 8.51866 2.2903 8.67895L3.60723 9.23161L6.004 5.57937M5.23184 9.48996L18.7683 9.48995L16.7417 6.40188C16.6411 6.24829 16.4411 6.08001 16.1485 5.94838C15.8609 5.81894 15.5384 5.75 15.2573 5.75H8.55177C7.99635 5.75 7.51105 6.01623 7.2587 6.4014L5.23184 9.48996ZM3.75005 17.8215V19C3.75005 19.1381 3.86198 19.25 4.00005 19.25H6.00005C6.13812 19.25 6.25005 19.1381 6.25005 19V18.2299H5.33119C4.73115 18.2299 4.19894 18.097 3.75005 17.8215C3.75033 17.8216 3.74977 17.8213 3.75005 17.8215ZM17.75 18.2299V19C17.75 19.1381 17.862 19.25 18 19.25H20C20.1381 19.25 20.25 19.1381 20.25 19V18.0816C19.9574 18.1834 19.6342 18.2291 19.2882 18.2299M19.2782 16.7299C19.6568 16.7299 19.8303 16.6471 19.9132 16.5845C19.9939 16.5235 20.0766 16.4151 20.1408 16.1841C20.2078 15.943 20.2388 15.6252 20.2473 15.2117C20.2526 14.9569 20.2495 14.7044 20.2462 14.4319C20.244 14.2492 20.2417 14.0575 20.2417 13.8499V11.6299C20.2417 11.3445 20.1624 11.1657 20.0913 11.0815C20.0423 11.0235 19.9689 10.969 19.7888 10.9865L19.7527 10.9899L4.15973 10.9899L4.12413 10.9865C4.01697 10.9763 3.9632 10.9925 3.94203 11.0013C3.92284 11.0092 3.90363 11.0217 3.88057 11.0519C3.82323 11.1272 3.75005 11.3093 3.75005 11.6299V13.8499C3.75005 14.7915 3.84863 15.5458 4.10222 16.0456C4.22103 16.2797 4.36452 16.4386 4.53553 16.5436C4.70679 16.6487 4.95495 16.7299 5.33119 16.7299H19.2782ZM17.75 18.2299H19.2782H17.75ZM4.75005 13C4.75005 12.5858 5.08584 12.25 5.50005 12.25V13V13.75C5.08584 13.75 4.75005 13.4142 4.75005 13ZM5.50005 13V13.75H8.00005C8.41426 13.75 8.75005 13.4142 8.75005 13C8.75005 12.5858 8.41426 12.25 8.00005 12.25H5.50005V13ZM15.25 13C15.25 12.5858 15.5858 12.25 16 12.25H18.5C18.9143 12.25 19.25 12.5858 19.25 13C19.25 13.4142 18.9143 13.75 18.5 13.75H16C15.5858 13.75 15.25 13.4142 15.25 13Z" fill="#FF821C"/>
</svg>
