<?xml version="1.0" encoding="UTF-8"?><svg id="Layer_1" xmlns="http://www.w3.org/2000/svg" viewBox="0 0 273 232.21"><g style="opacity:.3;"><g style="opacity:.25;"><path d="M46.05,169.81c-.57,13.7-14.18,13.1-14.18,13.1,0,0-14.71,.84-21.16-1.6-1.02-.4-1.92-1.04-2.62-1.86-1.45,1.3-2.2,2.16-2.2,2.64,0,3.76,57.02,6.79,130.29,6.79s132.1-3.03,132.1-6.79c0-.45-.86-1.45-2.53-2.85-.72,.96-1.69,1.71-2.82,2.16-6.45,2.44-21.16,1.6-21.16,1.6,0,0-13.61,.61-14.18-13.1h-.97l-14.77-7.93H61.73l-14.62,7.82" style="fill:#333;"/></g><path d="M266.13,77.49c-9.31-14.78-17.61-17.14-17.61-17.14l-8.81-6.05-3.96-2.74s-.55-1.45-1.56-3.85c-4.62-10.81-18.93-41.47-35.71-45.55,0,0-28.84-2.16-50.09-2.16h-20.21c-22.02,0-47.36,2.64-47.36,2.64-17.24,4.06-34.08,34.25-39.63,45.12-1.25,2.44-1.94,3.89-1.94,3.89l-3.87,2.61-9.2,6.14s-9.6,2.16-19.22,17.01C-2.67,92.25,.5,122.21,.5,122.21l1.78,37.23c.01,2.72,.77,5.38,2.2,7.72,.34,.46,.78,.84,1.29,1.11,.51,.27,1.08,.43,1.66,.46,0,0,28.05,2.98,35.89,.99h3.88l13.34-7.13c.84-.45,1.79-.69,2.75-.69H210.8c.83,0,1.64,.21,2.36,.6l13.54,7.22h4.4c7.62,1.99,34.85-.99,34.85-.99,.73-.06,1.43-.31,2.02-.73,.59-.42,1.06-.99,1.35-1.64,1-2.17,1.52-4.53,1.54-6.92l1.72-37.23s2.88-29.95-6.45-44.71Z" style="fill:#dfdfdf;"/><path d="M60.32,162.75l-13.21,7.07H226.52l-13.21-7.07c-.93-.49-1.98-.75-3.04-.76H63.36c-1.06,0-2.11,.26-3.04,.76Z" style="fill:#333;"/><path d="M41.25,47.78h-4.67s4.05-12.4-1.14-13.14c-5.2-.73-18.58,.99-21.22,7.2,0,0-2.2,10.18,8.81,11.28,6.01,.63,10.06,.97,12.51,1.17l3.79-2.53s.68-1.53,1.94-3.98Z"/><path d="M239.77,54.31c2.53-.15,7.22-.48,14.05-1.19,10.88-1.1,8.81-11.28,8.81-11.28-2.64-6.2-16.05-7.95-21.22-7.2-5.17,.76-1.15,13.14-1.15,13.14h-5.92c1.01,2.4,1.56,3.85,1.56,3.85l3.87,2.68Z"/><path d="M10.72,181.42c6.45,2.44,21.16,1.6,21.16,1.6,0,0,13.61,.6,14.18-13.1h-2.82c-7.84,1.99-35.89-.99-35.89-.99-.58-.03-1.15-.19-1.66-.46-.51-.27-.95-.65-1.29-1.11,0,2.35,.64,8.77,3.7,12.21,.7,.82,1.6,1.46,2.62,1.86Z"/><path d="M265.78,168.82s-27.23,2.98-34.85,.99h-3.46c.57,13.7,14.18,13.1,14.18,13.1,0,0,14.71,.84,21.16-1.6,1.12-.45,2.1-1.2,2.82-2.16,3.39-4.11,3.52-11.91,3.52-12.79-.28,.67-.74,1.26-1.33,1.69-.59,.43-1.3,.7-2.04,.77Z"/><path d="M66.9,144.14c-8.98-9.08-13.8-30.25-15.41-38.1-.15-.9,.02-1.83,.47-2.64,.45-.8,1.16-1.43,2.02-1.79l21.05-10.33c.81-.4,1.71-.61,2.62-.61h114.49c.91,0,1.81,.21,2.62,.61l21.05,10.33c.86,.36,1.57,.99,2.02,1.79,.45,.8,.62,1.73,.47,2.64-1.52,7.8-6.34,29.02-15.3,38.1-.52,.49-1.14,.88-1.82,1.13-.68,.26-1.4,.38-2.12,.36H70.82c-.72,.02-1.44-.1-2.11-.36-.67-.26-1.29-.64-1.81-1.13Z" style="fill:#d1d1d1;"/><path d="M70.05,142.95c-8.56-8.47-13.21-28.31-14.6-35.61-.14-.85,.03-1.73,.46-2.48,.43-.75,1.11-1.34,1.92-1.67l20.06-9.66c.78-.37,1.64-.57,2.51-.56h109.18c.87,0,1.73,.19,2.51,.56l20.06,9.66c.81,.33,1.49,.92,1.92,1.67,.43,.75,.59,1.63,.46,2.48-1.43,7.31-6.03,27.14-14.6,35.61-1.01,.93-2.36,1.43-3.74,1.4H73.88c-.7,.03-1.4-.08-2.06-.33-.66-.24-1.26-.61-1.77-1.08Z" style="fill:#333;"/><path d="M6.95,130.61l32.56,6.03c.35,.07,.68,.22,.95,.45,.27,.23,.48,.52,.6,.85l4.91,13.59c.24,.65,.23,1.36-.02,2.01-.25,.65-.73,1.18-1.35,1.51l-6.41,3.37c-.34,.17-.72,.24-1.1,.19l-30.36-3.67c-.57-.04-1.1-.29-1.51-.68-.4-.4-.65-.92-.7-1.48-.33-4.71-.97-16.62,.35-20.92,.11-.43,.39-.8,.78-1.03,.39-.23,.85-.31,1.29-.22Z"/><path d="M263.35,130.61l-32.56,6.03c-.35,.06-.68,.22-.96,.45-.27,.23-.48,.52-.61,.85l-4.89,13.59c-.24,.65-.24,1.36,.01,2.01,.25,.65,.73,1.18,1.35,1.51l6.41,3.37c.34,.17,.72,.24,1.1,.19l30.36-3.67c.57-.05,1.1-.29,1.5-.69,.4-.39,.65-.92,.7-1.47,.31-4.71,.95-16.62-.35-20.92-.12-.43-.39-.8-.78-1.03-.38-.23-.85-.31-1.29-.22Z"/><path d="M68.31,89.94l-42.56-6.03-14.22-2.01c-.35-.05-.7,0-1.02,.14-.32,.14-.6,.36-.8,.64-4.4,6.14-4.4,15.13-4.14,18.54,.02,.45,.17,.89,.42,1.27,.25,.38,.6,.69,1.01,.89,1.68,.79,3.44,1.42,5.24,1.88,5.49,1.33,11.1,2.14,16.75,2.42,3.48,.22,6.3,.26,7.6,.28,.52,0,1.02-.12,1.47-.37l30.45-16.49c.07-.04,.13-.09,.18-.15,.09-.08,.15-.18,.18-.29,.03-.11,.02-.23-.02-.34-.04-.11-.11-.2-.21-.27-.1-.07-.21-.11-.33-.11Zm-5.04,2.16l-26.18,13.68c-.43,.23-.92,.35-1.41,.35-3.72,0-19,0-27.15-3.96-.38-.19-.71-.47-.95-.82-.24-.35-.38-.75-.41-1.17-.2-3.24-.62-10.09,3.61-15.95,.2-.26,.46-.47,.77-.6,.31-.13,.64-.17,.97-.13l50.64,7.56c.13,0,.26,.07,.36,.16,.1,.09,.16,.22,.17,.35,.01,.13-.02,.26-.1,.37-.08,.11-.19,.19-.32,.22v-.07Z" style="fill:#d1d1d1;"/><path d="M263.71,103.32c.41-.2,.76-.51,1.01-.89,.25-.38,.39-.82,.42-1.27,.22-3.39,.31-12.4-4.12-18.54-.21-.28-.49-.5-.82-.64-.33-.14-.68-.18-1.04-.14l-12.06,1.71-44.71,6.33c-.11,.01-.2,.06-.29,.12-.08,.06-.15,.15-.18,.25-.04,.1-.05,.2-.03,.3,.02,.1,.06,.2,.13,.28,.05,.06,.11,.11,.18,.15l30.45,16.49c.45,.24,.96,.37,1.48,.37,1.67,0,5.75,0,10.54-.5,4.27-.32,8.51-.96,12.68-1.92,2.19-.47,4.33-1.17,6.36-2.1Zm-30.1,2.46l-26.15-13.68c-.1-.06-.18-.14-.23-.25-.05-.1-.07-.22-.05-.33,.02-.11,.07-.22,.15-.3,.08-.08,.19-.14,.3-.16l50.64-7.56c.33-.04,.67,0,.98,.13,.31,.13,.58,.34,.78,.61,4.2,5.86,3.79,12.71,3.59,15.95-.03,.42-.17,.83-.41,1.18-.24,.35-.57,.63-.96,.81-8.12,4-23.43,3.93-27.15,3.95-.52,.02-1.04-.1-1.5-.35Z" style="fill:#d1d1d1;"/><path d="M63.07,91.13l-50.64-7.56c-.33-.04-.67,0-.97,.13-.31,.13-.57,.34-.77,.6-4.23,5.86-3.81,12.71-3.61,15.95,.03,.42,.17,.82,.41,1.17,.24,.35,.57,.63,.95,.82,8.15,4,23.43,3.93,27.15,3.96,.49,0,.98-.12,1.41-.35l26.18-13.68c.1-.05,.18-.13,.24-.23,.05-.1,.08-.21,.06-.32-.01-.11-.06-.22-.13-.3-.07-.09-.17-.15-.28-.18Z" style="fill:#fff;"/><path d="M263.53,100.25c.2-3.24,.62-10.09-3.59-15.95-.2-.27-.47-.48-.78-.61-.31-.13-.65-.17-.98-.13l-50.64,7.56c-.11,.02-.22,.08-.3,.16-.08,.08-.13,.19-.15,.3-.02,.11,0,.23,.05,.33,.05,.1,.13,.19,.23,.25l26.24,13.61c.43,.23,.92,.35,1.41,.35,3.72,0,19.02,0,27.15-3.96,.38-.18,.7-.45,.94-.78,.24-.34,.39-.73,.43-1.14Z" style="fill:#fff;"/><path d="M42.73,51l-11.56,7.02c-6.47,7.2-6.01,22.13-5.42,25.93l42.56,6.03c.1,.01,.2,.06,.29,.12,.08,.06,.15,.15,.18,.25,.04,.1,.05,.2,.03,.3-.02,.1-.06,.2-.13,.28,5.46,.11,8.56-.11,8.56-.11L42.73,51Z" style="fill:#d1d1d1;"/><path d="M242.51,57.55l-9.67-6.74-1.74-.11,1.74,.11c-1.18,1.13-2.62,1.97-4.21,2.44l-36.11,37.54s3.46,.24,9.49,.11c-.07-.08-.11-.18-.13-.28-.02-.1,0-.21,.03-.3,.04-.1,.1-.18,.18-.25,.08-.06,.18-.11,.29-.12l44.72-6.33c.7-3.76,2.38-18.28-4.6-26.06Z" style="fill:#d1d1d1;"/><path d="M232.84,50.81l-1.74-.11c-10.24-.67-63.21-3.98-96.45-2.87,0,0-85.01,.63-91.92,3.35,0,0,5.11,7.09,32.25,5.77h40.29l45.68-.35,39.94,.17c15.41,0,23.51-1.88,27.74-3.52,1.58-.47,3.02-1.31,4.21-2.44Z" style="fill:#d1d1d1;"/><path d="M232.79,50.35C212.98,9.29,198.87,4.39,198.87,4.39c-51.91-5.86-118.21,0-118.21,0-13.34,2.83-34.85,41.06-37.93,46.57-.04,.07-.05,.14-.05,.22,0,.08,.03,.15,.07,.21,.04,.06,.1,.11,.17,.14,.07,.03,.15,.04,.22,.03,56.52-4.67,178.91-.97,189.34-.65,.06-.01,.12-.04,.17-.07,.05-.04,.09-.08,.12-.14,.03-.05,.05-.11,.05-.17,0-.06,0-.12-.03-.18Z"/><path d="M170.12,2.27c-12.36-.51-24.73-.57-36.14-.4l-27.91,47.44c12.04-.11,24.37-.11,36.41-.04L170.12,2.27Z" style="fill:#333; fill-rule:evenodd;"/></g><path d="M77.23,217.51v11.38h-2.16l-4.84-7.89v7.89h-2.15v-11.38h2.15l4.85,7.9v-7.9h2.14Zm1.66,7.23v-.16c0-.62,.09-1.19,.27-1.71,.18-.53,.43-.98,.77-1.37,.34-.39,.75-.68,1.24-.9,.49-.22,1.05-.33,1.67-.33s1.2,.11,1.69,.33c.49,.21,.91,.51,1.25,.9,.34,.39,.6,.84,.77,1.37,.18,.52,.27,1.09,.27,1.71v.16c0,.61-.09,1.18-.27,1.71-.18,.52-.43,.98-.77,1.37-.34,.39-.75,.68-1.24,.9-.49,.21-1.05,.32-1.68,.32s-1.18-.11-1.68-.32c-.49-.21-.91-.51-1.25-.9-.34-.39-.6-.85-.77-1.37-.18-.53-.27-1.1-.27-1.71Zm2.06-.16v.16c0,.37,.04,.72,.11,1.04s.18,.61,.34,.85c.15,.25,.35,.44,.59,.58,.24,.14,.54,.2,.88,.2s.62-.07,.86-.2c.24-.14,.43-.33,.59-.58,.16-.24,.27-.53,.34-.85,.07-.32,.11-.67,.11-1.04v-.16c0-.37-.04-.71-.11-1.02-.07-.32-.19-.61-.34-.85-.15-.25-.35-.45-.59-.59-.24-.15-.53-.22-.87-.22s-.62,.07-.86,.22c-.24,.14-.43,.34-.59,.59-.15,.24-.26,.53-.34,.85-.07,.32-.11,.66-.11,1.02Zm13.8-7.07v11.38h-2.15v-11.38h2.15Zm4.22,4.66v6.72h-2.06v-8.45h1.95l.12,1.73Zm-.3,2.19h-.63c0-.59,.07-1.13,.21-1.62,.15-.49,.36-.92,.64-1.29,.28-.37,.63-.66,1.04-.86,.42-.2,.9-.31,1.45-.31,.38,0,.73,.06,1.05,.17,.32,.11,.59,.28,.82,.52,.24,.23,.41,.54,.54,.92,.12,.38,.19,.82,.19,1.35v5.64h-2.06v-5.43c0-.4-.06-.71-.17-.93-.11-.22-.27-.38-.48-.47-.21-.09-.46-.14-.75-.14-.32,0-.6,.07-.84,.2-.23,.12-.42,.3-.57,.52-.15,.22-.26,.48-.33,.77-.07,.29-.1,.61-.1,.94Zm5.14-.38l-.85,.16c0-.53,.08-1.03,.22-1.49,.14-.47,.35-.88,.62-1.23,.28-.35,.62-.63,1.02-.83,.41-.2,.89-.31,1.42-.31,.42,0,.79,.06,1.12,.18,.34,.12,.63,.3,.87,.55,.24,.25,.42,.58,.55,.98,.13,.4,.2,.89,.2,1.47v5.43h-2.08v-5.44c0-.41-.06-.73-.17-.95-.11-.22-.27-.37-.48-.45-.21-.09-.45-.13-.73-.13s-.54,.06-.75,.16c-.21,.1-.39,.25-.53,.44-.14,.19-.25,.41-.32,.66-.07,.25-.1,.51-.1,.8Zm11.67,3.12v-3.9c0-.29-.05-.53-.15-.74-.1-.21-.25-.37-.45-.48-.2-.11-.46-.17-.77-.17-.28,0-.52,.05-.73,.14-.2,.09-.36,.23-.47,.4-.11,.17-.16,.36-.16,.58h-2.07c0-.35,.08-.68,.25-.99,.17-.32,.4-.6,.71-.84,.31-.25,.68-.45,1.12-.59,.44-.14,.93-.21,1.47-.21,.64,0,1.21,.11,1.71,.33,.5,.21,.9,.54,1.19,.97,.29,.43,.44,.98,.44,1.63v3.69c0,.42,.03,.78,.08,1.08,.06,.3,.14,.56,.25,.77v.13h-2.1c-.1-.21-.17-.49-.23-.81-.05-.33-.08-.66-.08-.98Zm.29-3.35v1.23s-1.29,0-1.29,0c-.32,0-.61,.03-.85,.1-.25,.06-.44,.16-.6,.28-.16,.12-.27,.26-.35,.44-.08,.17-.12,.36-.12,.57s.05,.4,.14,.56c.1,.17,.24,.3,.42,.4,.19,.09,.41,.14,.66,.14,.36,0,.68-.07,.95-.22,.27-.15,.48-.33,.63-.55,.15-.21,.23-.42,.24-.61l.59,.89c-.07,.21-.18,.44-.33,.68-.15,.24-.33,.46-.56,.67-.23,.21-.51,.38-.83,.52-.32,.14-.7,.2-1.12,.2-.55,0-1.04-.11-1.47-.33-.43-.22-.77-.52-1.02-.9-.25-.38-.38-.81-.38-1.3,0-.45,.08-.84,.25-1.19,.17-.34,.41-.63,.74-.87,.33-.24,.73-.42,1.22-.54,.49-.12,1.05-.19,1.68-.19h1.39Zm9.02-3.3h1.88v8.19c0,.77-.17,1.41-.5,1.95-.33,.54-.79,.94-1.38,1.22-.59,.28-1.28,.42-2.07,.42-.34,0-.71-.05-1.1-.14-.39-.09-.77-.24-1.13-.45-.36-.2-.66-.46-.9-.77l.93-1.22c.28,.33,.6,.58,.95,.74,.35,.17,.74,.26,1.15,.26s.77-.08,1.06-.24c.3-.15,.52-.38,.68-.67,.16-.29,.24-.65,.24-1.08v-6.29l.19-1.93Zm-5.71,4.33v-.16c0-.65,.08-1.23,.23-1.76,.16-.53,.38-.99,.67-1.37,.3-.38,.65-.68,1.07-.88,.42-.21,.9-.31,1.42-.31,.56,0,1.03,.1,1.41,.31,.38,.2,.7,.49,.95,.87,.26,.38,.45,.82,.59,1.34,.15,.51,.26,1.07,.34,1.69v.44c-.07,.6-.19,1.15-.35,1.65-.16,.5-.36,.94-.62,1.31-.26,.37-.58,.66-.97,.86-.39,.2-.84,.3-1.36,.3s-.99-.11-1.41-.32c-.42-.21-.77-.51-1.07-.9-.29-.39-.51-.84-.67-1.36-.16-.52-.23-1.09-.23-1.7Zm2.06-.16v.16c0,.36,.04,.71,.11,1.02,.07,.32,.18,.6,.34,.84,.15,.24,.34,.43,.57,.56,.23,.14,.5,.2,.82,.2,.43,0,.78-.09,1.05-.27,.28-.18,.49-.43,.62-.74,.15-.32,.24-.67,.28-1.07v-1.23c-.03-.31-.08-.6-.17-.87-.08-.27-.2-.5-.35-.69-.15-.19-.34-.34-.58-.45-.23-.11-.51-.16-.84-.16s-.59,.07-.82,.21c-.23,.14-.43,.32-.58,.57-.15,.24-.27,.53-.34,.85-.07,.32-.11,.67-.11,1.05Zm11.18,4.44c-.64,0-1.22-.1-1.73-.31-.51-.21-.95-.5-1.3-.87-.35-.38-.63-.81-.82-1.3-.19-.5-.28-1.04-.28-1.61v-.31c0-.65,.09-1.24,.28-1.77,.19-.54,.45-1,.8-1.38,.34-.38,.75-.68,1.23-.89,.48-.21,1.01-.31,1.59-.31s1.13,.1,1.59,.31c.46,.2,.84,.48,1.15,.84,.31,.36,.54,.8,.7,1.31,.16,.5,.23,1.06,.23,1.68v.87h-6.62v-1.42h4.59v-.16c-.01-.33-.07-.63-.19-.9-.11-.28-.29-.5-.53-.66-.24-.17-.55-.25-.93-.25-.31,0-.58,.07-.8,.2-.22,.13-.41,.32-.56,.56-.15,.24-.26,.53-.33,.86-.07,.33-.11,.7-.11,1.11v.31c0,.35,.05,.68,.14,.99,.1,.3,.24,.56,.43,.79,.19,.22,.42,.39,.69,.51,.27,.12,.58,.18,.92,.18,.43,0,.82-.08,1.17-.25,.35-.17,.66-.43,.92-.76l1.04,1.08c-.18,.26-.42,.51-.72,.75-.3,.24-.66,.43-1.08,.59-.42,.15-.91,.22-1.46,.22Zm13.48-9.8l-3.24,9.65h-2.27l4.25-11.38h1.45l-.19,1.73Zm2.71,9.65l-3.26-9.65-.2-1.73h1.46l4.27,11.38h-2.28Zm-.15-4.23v1.69h-6.1v-1.69h6.1Zm5.86,2.66l1.97-6.89h2.16l-2.9,8.45h-1.31l.09-1.56Zm-1.44-6.89l1.99,6.91,.07,1.55h-1.32l-2.91-8.45h2.16Zm11.18,6.66v-3.9c0-.29-.05-.53-.15-.74-.1-.21-.25-.37-.45-.48-.2-.11-.46-.17-.77-.17-.28,0-.52,.05-.73,.14-.2,.09-.36,.23-.47,.4-.11,.17-.16,.36-.16,.58h-2.07c0-.35,.08-.68,.25-.99,.17-.32,.4-.6,.71-.84,.31-.25,.68-.45,1.12-.59,.44-.14,.93-.21,1.47-.21,.64,0,1.21,.11,1.71,.33,.51,.21,.9,.54,1.19,.97,.29,.43,.44,.98,.44,1.63v3.69c0,.42,.03,.78,.08,1.08,.06,.3,.14,.56,.25,.77v.13h-2.1c-.1-.21-.18-.49-.23-.81-.05-.33-.08-.66-.08-.98Zm.29-3.35l.02,1.23h-1.31c-.32,0-.61,.03-.85,.1-.24,.06-.44,.16-.6,.28-.16,.12-.27,.26-.35,.44-.08,.17-.12,.36-.12,.57s.05,.4,.14,.56c.1,.17,.24,.3,.42,.4,.19,.09,.41,.14,.66,.14,.36,0,.68-.07,.95-.22,.27-.15,.48-.33,.63-.55,.15-.21,.23-.42,.24-.61l.59,.89c-.07,.21-.18,.44-.33,.68-.15,.24-.33,.46-.56,.67-.23,.21-.51,.38-.83,.52-.32,.14-.7,.2-1.12,.2-.55,0-1.04-.11-1.47-.33-.43-.22-.77-.52-1.02-.9-.25-.38-.38-.81-.38-1.3,0-.45,.08-.84,.25-1.19,.17-.34,.41-.63,.74-.87,.33-.24,.73-.42,1.22-.54,.49-.12,1.05-.19,1.68-.19h1.39Zm5.84-3.3v8.45h-2.07v-8.45h2.07Zm-2.21-2.21c0-.31,.1-.56,.31-.77,.21-.2,.5-.31,.86-.31s.64,.1,.85,.31c.21,.2,.32,.46,.32,.77s-.11,.55-.32,.76c-.21,.2-.49,.31-.85,.31s-.65-.1-.86-.31c-.21-.2-.31-.46-.31-.76Zm6.37-1.34v12h-2.07v-12h2.07Zm6.62,10.2v-3.9c0-.29-.05-.53-.15-.74-.1-.21-.25-.37-.45-.48-.2-.11-.46-.17-.77-.17-.28,0-.52,.05-.73,.14-.2,.09-.36,.23-.47,.4-.11,.17-.16,.36-.16,.58h-2.07c0-.35,.08-.68,.25-.99,.17-.32,.4-.6,.71-.84,.31-.25,.68-.45,1.12-.59,.44-.14,.93-.21,1.47-.21,.64,0,1.21,.11,1.71,.33,.51,.21,.9,.54,1.19,.97,.29,.43,.44,.98,.44,1.63v3.69c0,.42,.03,.78,.08,1.08,.06,.3,.14,.56,.25,.77v.13h-2.1c-.1-.21-.18-.49-.23-.81-.05-.33-.08-.66-.08-.98Zm.29-3.35l.02,1.23h-1.3c-.32,0-.61,.03-.85,.1-.25,.06-.45,.16-.6,.28-.16,.12-.27,.26-.35,.44-.08,.17-.12,.36-.12,.57s.05,.4,.14,.56c.1,.17,.24,.3,.42,.4,.19,.09,.41,.14,.66,.14,.37,0,.68-.07,.95-.22,.27-.15,.48-.33,.63-.55,.15-.21,.23-.42,.24-.61l.59,.89c-.07,.21-.18,.44-.33,.68-.15,.24-.33,.46-.56,.67-.23,.21-.51,.38-.83,.52-.32,.14-.7,.2-1.12,.2-.55,0-1.04-.11-1.47-.33-.43-.22-.77-.52-1.02-.9-.25-.38-.38-.81-.38-1.3,0-.45,.08-.84,.25-1.19s.41-.63,.74-.87c.33-.24,.74-.42,1.22-.54,.49-.12,1.05-.19,1.68-.19h1.39Zm3.64-6.85h2.07v10.13l-.2,1.87h-1.87v-12Zm7.51,7.69v.16c0,.63-.07,1.21-.21,1.74-.14,.53-.34,.98-.62,1.37-.28,.38-.62,.68-1.03,.89-.41,.21-.88,.31-1.43,.31s-.97-.1-1.36-.3c-.38-.2-.7-.49-.96-.86-.26-.38-.47-.82-.62-1.32-.16-.51-.27-1.07-.35-1.67v-.45c.08-.61,.2-1.17,.35-1.67,.16-.51,.36-.95,.62-1.32,.26-.38,.58-.66,.96-.87,.38-.2,.83-.31,1.34-.31,.55,0,1.03,.11,1.45,.32,.42,.21,.76,.5,1.03,.89,.28,.38,.48,.83,.62,1.36,.14,.52,.21,1.1,.21,1.73Zm-2.07,.16v-.16c0-.36-.03-.7-.09-1.01-.06-.32-.15-.61-.28-.85-.13-.24-.31-.44-.53-.58-.22-.14-.51-.21-.84-.21s-.6,.06-.83,.16c-.22,.11-.41,.26-.56,.45-.15,.19-.26,.42-.34,.68-.08,.26-.13,.54-.16,.84v1.22c.04,.4,.12,.76,.26,1.09,.14,.32,.34,.57,.6,.76,.27,.19,.62,.28,1.05,.28,.33,0,.61-.06,.84-.19,.22-.13,.4-.32,.53-.56,.13-.25,.22-.53,.27-.85,.06-.32,.09-.68,.09-1.05Zm5.76-7.85v12h-2.07v-12h2.07Zm5.77,12.16c-.64,0-1.22-.1-1.73-.31-.51-.21-.95-.5-1.3-.87-.36-.38-.63-.81-.82-1.3-.19-.5-.28-1.04-.28-1.61v-.31c0-.65,.09-1.24,.28-1.77,.19-.54,.45-1,.8-1.38,.34-.38,.75-.68,1.24-.89,.48-.21,1.01-.31,1.58-.31s1.13,.1,1.59,.31c.46,.2,.84,.48,1.15,.84,.31,.36,.54,.8,.7,1.31,.16,.5,.24,1.06,.24,1.68v.87h-6.63v-1.42h4.59v-.16c-.01-.33-.07-.63-.19-.9-.11-.28-.29-.5-.53-.66-.24-.17-.55-.25-.93-.25-.31,0-.58,.07-.8,.2-.22,.13-.41,.32-.56,.56-.15,.24-.26,.53-.33,.86-.07,.33-.11,.7-.11,1.11v.31c0,.35,.05,.68,.14,.99,.1,.3,.24,.56,.43,.79,.19,.22,.42,.39,.69,.51,.27,.12,.58,.18,.92,.18,.43,0,.82-.08,1.17-.25,.35-.17,.66-.43,.92-.76l1.04,1.08c-.18,.26-.42,.51-.72,.75-.3,.24-.66,.43-1.08,.59-.42,.15-.91,.22-1.46,.22Z" style="fill:#59636e;"/></svg>