<svg id="Layer_1" data-name="Layer 1" xmlns="http://www.w3.org/2000/svg" viewBox="0 0 1820.49 713.73">
  <defs>
    <style>.cls-1{fill:#65299d;}</style>
  </defs>
  <path class="cls-1" d="M1330.47,42c-133.55-23.89-280.74-25.86-437.26-16.15-236.34,14.6-455.32,65.26-616.65,146.1C130.73,245,50,333.17,55,413.88c2.8,44.76,28.17,84.69,79.8,124.08C47.89,482.16,0,418.89,0,356.86,0,271.34,91,183.5,249.69,115.93,425.25,41.15,659.82,0,910.24,0,1058.91,0,1202,14.52,1330.47,42"/>
  <path class="cls-1" d="M1820.49,356.86c0,85.53-91,173.37-249.69,240.94-175.56,74.74-410.17,115.93-660.56,115.93-149,0-292.43-14.61-421.12-42.14,133.76,24,280.19,26.89,437.06,17.18,236.34-14.64,455.36-66.12,616.66-147,145.83-73.07,226.62-161.25,221.6-242-2.75-44.63-26.89-84.48-78.31-123.87C1772.77,231.78,1820.49,294.92,1820.49,356.86Z"/>
  <path class="cls-1" d="M258.67,353.21c0-48.66,36.57-86.21,86.21-86.21,32,0,59.75,17,73.14,42.13l-36.25,21.22c-6.53-13.39-20.57-21.88-37.22-21.88-25.14,0-43.75,18.61-43.75,44.74,0,25.79,18.61,44.41,43.75,44.41,17,0,31-8.17,37.55-21.56L418.67,397c-14,25.47-41.79,42.45-73.79,42.45C295.24,439.41,258.67,401.86,258.67,353.21Z"/>
  <path class="cls-1" d="M603.76,271.57V434.84H561.64V415.58c-11.76,14.69-29.39,23.83-53.23,23.83-43.43,0-79.35-37.55-79.35-86.2S465,267,508.41,267c23.84,0,41.47,9.15,53.23,23.84V271.57Zm-44.23,81.64c0-27.43-19.26-46-45.39-46-25.8,0-45.06,18.61-45.06,46s19.26,46,45.06,46C540.27,399.25,559.53,380.64,559.53,353.21Z"/>
  <path class="cls-1" d="M720.35,268.31v47c-21.88-2.61-49.64,7.18-49.64,41.47v78H628.59V271.57h42.12v28.08C679.2,277.45,699.78,268.31,720.35,268.31Z"/>
  <path class="cls-1" d="M867.09,387.17c0,35.26-30.69,52.24-65.63,52.24-32.66,0-56.82-13.71-68.58-38.86L769.46,380c4.57,13.39,15.67,21.23,32,21.23,13.38,0,22.53-4.57,22.53-14,0-23.84-84.25-10.78-84.25-68.25,0-33.31,28.41-51.92,62-51.92,26.45,0,49.31,12.08,62,34.62l-35.91,19.59c-4.9-10.45-14-16.66-26.13-16.66-10.45,0-18.94,4.58-18.94,13.39C782.84,342.1,867.09,327.08,867.09,387.17Z"/>
  <path class="cls-1" d="M903.65,396.47a21.49,21.49,0,1,1-16.57,25.47A21.47,21.47,0,0,1,903.65,396.47Z"/>
  <path class="cls-1" d="M938.92,353.21c0-48.66,36.57-86.21,86.21-86.21,32,0,59.75,17,73.14,42.13L1062,330.35c-6.53-13.39-20.57-21.88-37.22-21.88-25.14,0-43.76,18.61-43.76,44.74,0,25.79,18.62,44.41,43.76,44.41,17,0,31-8.17,37.55-21.56l36.57,20.9c-14,25.47-41.8,42.45-73.79,42.45C975.49,439.41,938.92,401.86,938.92,353.21Z"/>
  <path class="cls-1" d="M1110.18,353.21c0-48.66,38.2-86.21,86.2-86.21s86.53,37.55,86.53,86.21-38.53,86.2-86.53,86.2S1110.18,401.86,1110.18,353.21Zm130.61,0c0-26.45-19.26-45.07-44.41-45.07-24.82,0-44.08,18.62-44.08,45.07s19.26,45.06,44.08,45.06C1221.53,398.27,1240.79,379.66,1240.79,353.21Z"/>
  <path class="cls-1" d="M1546.48,334.27V434.84h-42.13V337.2c0-19.26-9.79-31-27.42-31-18.62,0-30.37,12.41-30.37,36.91v91.75h-42.12V337.2c0-19.26-9.8-31-27.43-31-18,0-30.7,12.41-30.7,36.91v91.75h-42.12V271.57h42.12v17.31c9.14-13.72,24.49-21.88,45.39-21.88,20.24,0,35.27,8.49,44.41,23.51,10.12-14.69,26.45-23.51,48.65-23.51C1522,267,1546.48,293.45,1546.48,334.27Z"/>
  <path class="cls-1" d="M1704.15,654.13v-31.3H1693v-3.91h26.71v3.91h-11.19v31.3Z"/>
  <path class="cls-1" d="M1755.61,654.13V624.84l-12,29.29h-1.8l-11.93-29.29v29.29h-4.38V618.92h6.28l10.93,26.82,11-26.82H1760v35.21Z"/>
</svg>